<mxfile host="app.diagrams.net" modified="2022-08-30T06:53:30.438Z" agent="5.0 (Windows NT 10.0; Win64; x64) AppleWebKit/537.36 (KHTML, like Gecko) Chrome/104.0.0.0 Safari/537.36" etag="LZ9r5lzdDnfk1088tlkF" version="20.2.7" type="github">
  <diagram id="vVnxGS3DNkMV-MBWDI6a" name="第 1 页">
    <mxGraphModel dx="1209" dy="684" grid="1" gridSize="10" guides="1" tooltips="1" connect="1" arrows="1" fold="1" page="1" pageScale="1" pageWidth="827" pageHeight="1169" math="0" shadow="0">
      <root>
        <mxCell id="0" />
        <mxCell id="1" parent="0" />
        <mxCell id="cyKEODwtCJB8owj_rxAV-8" style="edgeStyle=orthogonalEdgeStyle;rounded=0;orthogonalLoop=1;jettySize=auto;html=1;entryX=0.5;entryY=0;entryDx=0;entryDy=0;" edge="1" parent="1" source="cyKEODwtCJB8owj_rxAV-1" target="cyKEODwtCJB8owj_rxAV-2">
          <mxGeometry relative="1" as="geometry">
            <Array as="points">
              <mxPoint x="320" y="300" />
              <mxPoint x="90" y="300" />
            </Array>
          </mxGeometry>
        </mxCell>
        <mxCell id="cyKEODwtCJB8owj_rxAV-9" style="edgeStyle=orthogonalEdgeStyle;rounded=0;orthogonalLoop=1;jettySize=auto;html=1;" edge="1" parent="1" source="cyKEODwtCJB8owj_rxAV-1" target="cyKEODwtCJB8owj_rxAV-3">
          <mxGeometry relative="1" as="geometry">
            <Array as="points">
              <mxPoint x="320" y="300" />
              <mxPoint x="530" y="300" />
            </Array>
          </mxGeometry>
        </mxCell>
        <mxCell id="cyKEODwtCJB8owj_rxAV-1" value="提交代码" style="rounded=1;whiteSpace=wrap;html=1;" vertex="1" parent="1">
          <mxGeometry x="260" y="180" width="120" height="60" as="geometry" />
        </mxCell>
        <mxCell id="cyKEODwtCJB8owj_rxAV-11" value="" style="edgeStyle=orthogonalEdgeStyle;rounded=0;orthogonalLoop=1;jettySize=auto;html=1;" edge="1" parent="1" source="cyKEODwtCJB8owj_rxAV-2" target="cyKEODwtCJB8owj_rxAV-7">
          <mxGeometry relative="1" as="geometry" />
        </mxCell>
        <mxCell id="cyKEODwtCJB8owj_rxAV-13" style="edgeStyle=orthogonalEdgeStyle;rounded=0;orthogonalLoop=1;jettySize=auto;html=1;entryX=0;entryY=0.5;entryDx=0;entryDy=0;" edge="1" parent="1" source="cyKEODwtCJB8owj_rxAV-2" target="cyKEODwtCJB8owj_rxAV-6">
          <mxGeometry relative="1" as="geometry">
            <Array as="points">
              <mxPoint x="90" y="540" />
            </Array>
          </mxGeometry>
        </mxCell>
        <mxCell id="cyKEODwtCJB8owj_rxAV-2" value="CODE REVIEW" style="rhombus;whiteSpace=wrap;html=1;" vertex="1" parent="1">
          <mxGeometry x="30" y="360" width="120" height="80" as="geometry" />
        </mxCell>
        <mxCell id="cyKEODwtCJB8owj_rxAV-10" value="" style="edgeStyle=orthogonalEdgeStyle;rounded=0;orthogonalLoop=1;jettySize=auto;html=1;" edge="1" parent="1" source="cyKEODwtCJB8owj_rxAV-3" target="cyKEODwtCJB8owj_rxAV-7">
          <mxGeometry relative="1" as="geometry" />
        </mxCell>
        <mxCell id="cyKEODwtCJB8owj_rxAV-12" style="edgeStyle=orthogonalEdgeStyle;rounded=0;orthogonalLoop=1;jettySize=auto;html=1;entryX=1;entryY=0.5;entryDx=0;entryDy=0;" edge="1" parent="1" source="cyKEODwtCJB8owj_rxAV-3" target="cyKEODwtCJB8owj_rxAV-6">
          <mxGeometry relative="1" as="geometry">
            <Array as="points">
              <mxPoint x="530" y="540" />
            </Array>
          </mxGeometry>
        </mxCell>
        <mxCell id="cyKEODwtCJB8owj_rxAV-3" value="VERIFED" style="rhombus;whiteSpace=wrap;html=1;" vertex="1" parent="1">
          <mxGeometry x="470" y="360" width="120" height="80" as="geometry" />
        </mxCell>
        <mxCell id="cyKEODwtCJB8owj_rxAV-6" value="SUMBIT" style="rounded=1;whiteSpace=wrap;html=1;" vertex="1" parent="1">
          <mxGeometry x="260" y="510" width="120" height="60" as="geometry" />
        </mxCell>
        <mxCell id="cyKEODwtCJB8owj_rxAV-7" value="ABANDON" style="rounded=1;whiteSpace=wrap;html=1;" vertex="1" parent="1">
          <mxGeometry x="260" y="370" width="120" height="60" as="geometry" />
        </mxCell>
      </root>
    </mxGraphModel>
  </diagram>
</mxfile>
